<svg width="250" height="40" viewBox="0 0 250 40" fill="none" xmlns="http://www.w3.org/2000/svg">
<g id="logo" clip-path="url(#clip0_16682_35788)">
<g id="Group">
<g id="Group_2">
<path id="Vector" d="M12.2734 28.1197L22.6777 38.524H31.5933L16.02 22.9424L12.2734 28.1197Z" fill="#002A4B"/>
<path id="Vector_2" d="M121.651 13.0177L121.593 12.9102H115.407L100.619 38.5238H107.897L118.5 19.8491L129.037 38.4163L129.094 38.5238H136.381L121.651 13.0177Z" fill="#002A4B"/>
<path id="Vector_3" d="M48.4907 12.9102L33.7031 38.5238H40.9811L51.5839 19.8491L62.1288 38.4163L62.1867 38.5238H69.4647L54.6771 12.9102H48.4907Z" fill="#002A4B"/>
<path id="Vector_4" d="M93.3813 22.8678H77.4689C76.3275 22.8678 75.4012 21.9415 75.4012 20.8002V20.734C75.4012 19.5927 76.3275 18.6664 77.4689 18.6664H99.5841V12.9102H77.535C73.193 12.9102 69.6367 16.4665 69.6367 20.8085C69.6367 24.6212 72.8539 28.5496 77.5268 28.5496H93.4226C94.5639 28.5496 95.4902 29.4759 95.4902 30.6172V30.6834C95.4902 31.8247 94.5639 32.751 93.4226 32.751H71.3074V38.5238H93.3565C97.6985 38.5238 101.255 34.9675 101.255 30.6255C101.255 26.7797 97.9466 22.8678 93.373 22.8678H93.3813Z" fill="#002A4B"/>
<path id="Vector_5" d="M0 38.5238H6.3021V29.4511H6.29383V21.2303H6.3021V12.9102H0V38.5238Z" fill="#002A4B"/>
</g>
<path id="Vector_6" d="M51.6243 0H51.5333C51.5333 2.81196 49.2342 5.11943 46.4139 5.11943C41.3276 4.82996 36.1916 5.74798 31.3617 7.41862C19.8409 11.5125 9.32083 19.7251 3.13451 30.4271C1.76161 32.9496 0.529311 35.6788 0 38.5239H7.89004C8.02236 37.9532 8.17123 37.3826 8.34491 36.8284C10.4787 30.0384 15.4658 23.4633 20.5273 18.5176C27.582 11.6779 36.5721 6.50887 46.4222 5.2104C49.2342 5.2104 51.5416 7.50959 51.5416 10.3298H51.6326C51.6326 7.50132 53.9235 5.2104 56.752 5.2104V5.11943C53.9401 5.11943 51.6326 2.82023 51.6326 0L51.6243 0Z" fill="url(#paint0_linear_16682_35788)"/>
</g>
<g id="Group_3">
<path id="Vector_7" d="M158.314 24.7947H151.565V30.5344H149.051V24.7947H142.418V22.7767H158.314V24.7947ZM143.973 17.4919C143.973 15.11 146.561 13.5469 150.325 13.5469C154.088 13.5469 156.676 15.11 156.676 17.4919C156.676 19.8738 154.063 21.4535 150.325 21.4535C146.586 21.4535 143.973 19.9069 143.973 17.4919ZM146.545 17.4919C146.545 18.7655 148.009 19.452 150.316 19.452C152.624 19.452 154.071 18.7655 154.071 17.4919C154.071 16.2182 152.607 15.5483 150.316 15.5483C148.025 15.5483 146.545 16.2348 146.545 17.4919Z" fill="#002A4B"/>
<path id="Vector_8" d="M175.832 24.6548H169.099V30.5433H166.585V24.6548H159.969V22.6533H175.832V24.6548ZM160.713 19.6842C164.294 19.2459 166.163 17.5339 166.411 15.855H161.358V13.8535H174.376V15.855H169.397C169.645 17.5339 171.498 19.2459 175.062 19.6842L174.169 21.6443C171.101 21.2225 168.942 19.9075 167.9 18.1211C166.85 19.9158 164.699 21.2308 161.631 21.6443L160.713 19.6842Z" fill="#002A4B"/>
<path id="Vector_9" d="M187.814 16.5907H177.484V14.6306H181.371V12.8359H183.911V14.6306H187.822V16.5907H187.814ZM182.653 23.4387C180.114 23.4387 178.344 22.1816 178.344 20.3124C178.344 18.4433 180.114 17.1697 182.653 17.1697C185.192 17.1697 186.962 18.4433 186.962 20.3124C186.962 22.1816 185.192 23.4387 182.653 23.4387ZM191.478 27.4003C191.478 29.3438 189.212 30.5099 185.589 30.5099C181.967 30.5099 179.701 29.3438 179.701 27.4003C179.701 25.4567 181.967 24.274 185.589 24.274C189.212 24.274 191.478 25.4401 191.478 27.4003ZM182.653 21.6275C183.778 21.6275 184.564 21.1726 184.564 20.3124C184.564 19.4523 183.778 18.9974 182.653 18.9974C181.529 18.9974 180.743 19.4523 180.743 20.3124C180.743 21.1726 181.529 21.6275 182.653 21.6275ZM188.98 27.4003C188.98 26.5401 187.798 26.1597 185.589 26.1597C183.381 26.1597 182.199 26.5401 182.199 27.4003C182.199 28.2604 183.381 28.6408 185.589 28.6408C187.798 28.6408 188.98 28.2438 188.98 27.4003ZM193.628 17.4343V19.4937H191.304V24.0838H188.79V12.9683H191.304V17.4261H193.628V17.4343Z" fill="#002A4B"/>
<path id="Vector_10" d="M210.863 20.809V22.7939H195.059V20.809H200.914V17.7407H203.428V20.809H210.863ZM209.094 27.2104C209.094 29.2532 206.654 30.5103 202.858 30.5103C199.061 30.5103 196.647 29.2532 196.647 27.2104C196.647 25.1676 199.086 23.8939 202.858 23.8939C206.629 23.8939 209.094 25.151 209.094 27.2104ZM206.017 19.6263C206.414 18.0632 206.472 16.8805 206.472 15.7144H196.828V13.7295H208.994V15.1768C208.994 16.5663 208.994 18.055 208.498 19.8662L206.017 19.6181V19.6263ZM206.596 27.2104C206.596 26.2593 205.24 25.7796 202.858 25.7796C200.476 25.7796 199.144 26.2593 199.144 27.2104C199.144 28.1615 200.501 28.6246 202.858 28.6246C205.215 28.6246 206.596 28.1449 206.596 27.2104Z" fill="#002A4B"/>
<path id="Vector_11" d="M221.954 23.0001C219.994 22.4873 218.621 21.3956 217.819 20.0062C217.033 21.6106 215.669 22.8429 213.626 23.4384L212.443 21.4949C215.231 20.6926 216.446 18.7077 216.488 16.7476H213.055V14.7627H216.488V12.8936H219.002V14.7627H222.475V16.7476H219.002C219.043 18.5588 220.3 20.3287 223.104 21.0731L221.963 23.0001H221.954ZM227.314 27.1932C227.314 29.2939 225.023 30.5097 221.309 30.5097C217.596 30.5097 215.288 29.2856 215.288 27.1932C215.288 25.1008 217.579 23.8602 221.309 23.8602C225.039 23.8602 227.314 25.0842 227.314 27.1932ZM224.799 27.1932C224.799 26.2421 223.6 25.779 221.309 25.779C219.018 25.779 217.803 26.2338 217.803 27.1932C217.803 28.1526 218.985 28.5827 221.309 28.5827C223.633 28.5827 224.799 28.1443 224.799 27.1932ZM224.717 17.6408V12.9514H227.231V23.5542H224.717V19.6671H221.987V17.6491H224.717V17.6408Z" fill="#002A4B"/>
</g>
<g id="Group_4">
<path id="Vector_12" d="M144.501 36.721L143.922 37.3496V38.4744H142.93V34.0166H143.922V36.1008L145.841 34.0166H146.957L145.163 36.0015L147.065 38.4744H145.899L144.518 36.721H144.501Z" fill="#002A4B"/>
<path id="Vector_13" d="M147.123 36.7538C147.123 35.72 147.892 34.9922 148.951 34.9922C150.009 34.9922 150.779 35.7283 150.779 36.7538C150.779 37.7793 150.009 38.5154 148.951 38.5154C147.892 38.5154 147.123 37.7793 147.123 36.7538ZM149.803 36.7538C149.803 36.1583 149.439 35.8027 148.959 35.8027C148.479 35.8027 148.107 36.1583 148.107 36.7538C148.107 37.3493 148.479 37.7049 148.959 37.7049C149.439 37.7049 149.803 37.3493 149.803 36.7538Z" fill="#002A4B"/>
<path id="Vector_14" d="M153.566 34.9922V35.9102C153.483 35.9102 153.425 35.8937 153.351 35.8937C152.821 35.8937 152.466 36.1914 152.466 36.853V38.4741H151.498V35.0418H152.416V35.4967C152.648 35.1659 153.045 34.9922 153.557 34.9922H153.566Z" fill="#002A4B"/>
<path id="Vector_15" d="M157.428 37.035H154.913C155.004 37.4651 155.36 37.7214 155.865 37.7214C156.22 37.7214 156.468 37.6139 156.7 37.3906L157.213 37.9613C156.907 38.3252 156.443 38.5154 155.84 38.5154C154.69 38.5154 153.938 37.7711 153.938 36.7538C153.938 35.7365 154.698 34.9922 155.716 34.9922C156.733 34.9922 157.444 35.6704 157.444 36.7703C157.444 36.8448 157.436 36.9523 157.428 37.035ZM154.897 36.4561H156.534C156.468 36.026 156.154 35.7448 155.716 35.7448C155.277 35.7448 154.963 36.0177 154.897 36.4561Z" fill="#002A4B"/>
<path id="Vector_16" d="M161.017 36.514V38.4741H160.115V38.044C159.933 38.3583 159.586 38.5237 159.098 38.5237C158.321 38.5237 157.857 38.0771 157.857 37.4816C157.857 36.8861 158.271 36.4561 159.288 36.4561H160.057C160.057 36.026 159.809 35.7779 159.288 35.7779C158.933 35.7779 158.569 35.9019 158.329 36.1004L157.981 35.4057C158.345 35.1411 158.883 34.9922 159.412 34.9922C160.43 34.9922 161.017 35.4801 161.017 36.514ZM160.049 37.3824V37.035H159.387C158.933 37.035 158.792 37.2087 158.792 37.4402C158.792 37.6884 158.999 37.8538 159.338 37.8538C159.66 37.8538 159.933 37.7049 160.049 37.3906V37.3824Z" fill="#002A4B"/>
<path id="Vector_17" d="M166.716 37.515H164.707L164.326 38.4744H163.301L165.228 34.0166H166.22L168.156 38.4744H167.105L166.725 37.515H166.716ZM166.402 36.7293L165.716 35.0256L165.029 36.7293H166.402Z" fill="#002A4B"/>
<path id="Vector_18" d="M171.818 37.035H169.304C169.395 37.4651 169.751 37.7214 170.255 37.7214C170.611 37.7214 170.859 37.6139 171.09 37.3906L171.603 37.9613C171.297 38.3252 170.834 38.5154 170.23 38.5154C169.081 38.5154 168.328 37.7711 168.328 36.7538C168.328 35.7365 169.089 34.9922 170.106 34.9922C171.124 34.9922 171.835 35.6704 171.835 36.7703C171.835 36.8448 171.827 36.9523 171.818 37.035ZM169.288 36.4561H170.925C170.859 36.026 170.545 35.7448 170.106 35.7448C169.668 35.7448 169.354 36.0177 169.288 36.4561Z" fill="#002A4B"/>
<path id="Vector_19" d="M174.622 34.9922V35.9102C174.54 35.9102 174.482 35.8937 174.407 35.8937C173.878 35.8937 173.522 36.1914 173.522 36.853V38.4741H172.555V35.0418H173.473V35.4967C173.704 35.1659 174.101 34.9922 174.614 34.9922H174.622Z" fill="#002A4B"/>
<path id="Vector_20" d="M175.002 36.7538C175.002 35.72 175.771 34.9922 176.83 34.9922C177.888 34.9922 178.658 35.7283 178.658 36.7538C178.658 37.7793 177.888 38.5154 176.83 38.5154C175.771 38.5154 175.002 37.7793 175.002 36.7538ZM177.673 36.7538C177.673 36.1583 177.309 35.8027 176.83 35.8027C176.35 35.8027 175.978 36.1583 175.978 36.7538C175.978 37.3493 176.35 37.7049 176.83 37.7049C177.309 37.7049 177.673 37.3493 177.673 36.7538Z" fill="#002A4B"/>
<path id="Vector_21" d="M179.105 38.0279L179.445 37.2505C179.808 37.5234 180.354 37.7137 180.875 37.7137C181.471 37.7137 181.711 37.5069 181.711 37.234C181.711 36.3987 179.196 36.9693 179.196 35.3152C179.196 34.5543 179.792 33.9258 181.016 33.9258C181.562 33.9258 182.116 34.0581 182.521 34.3228L182.215 35.1085C181.81 34.8686 181.396 34.7611 181.016 34.7611C180.42 34.7611 180.197 34.9927 180.197 35.2739C180.197 36.0926 182.711 35.5303 182.711 37.1678C182.711 37.9121 182.116 38.549 180.875 38.549C180.189 38.549 179.494 38.3422 179.114 38.0362L179.105 38.0279Z" fill="#002A4B"/>
<path id="Vector_22" d="M187.019 36.7543C187.019 37.8294 186.299 38.5159 185.365 38.5159C184.951 38.5159 184.612 38.3835 184.364 38.1023V39.6985H183.396V35.034H184.315V35.431C184.554 35.1332 184.918 34.9844 185.357 34.9844C186.291 34.9844 187.011 35.6708 187.011 36.746L187.019 36.7543ZM186.043 36.7543C186.043 36.1588 185.679 35.8032 185.199 35.8032C184.72 35.8032 184.356 36.1588 184.356 36.7543C184.356 37.3497 184.72 37.7054 185.199 37.7054C185.679 37.7054 186.043 37.3497 186.043 36.7543Z" fill="#002A4B"/>
<path id="Vector_23" d="M190.626 36.514V38.4741H189.725V38.044C189.543 38.3583 189.195 38.5237 188.707 38.5237C187.93 38.5237 187.467 38.0771 187.467 37.4816C187.467 36.8861 187.88 36.4561 188.898 36.4561H189.667C189.667 36.026 189.419 35.7779 188.898 35.7779C188.542 35.7779 188.178 35.9019 187.938 36.1004L187.591 35.4057C187.955 35.1411 188.492 34.9922 189.022 34.9922C190.039 34.9922 190.626 35.4801 190.626 36.514ZM189.658 37.3824V37.035H188.997C188.542 37.035 188.401 37.2087 188.401 37.4402C188.401 37.6884 188.608 37.8538 188.947 37.8538C189.27 37.8538 189.543 37.7049 189.658 37.3906V37.3824Z" fill="#002A4B"/>
<path id="Vector_24" d="M191.361 36.7538C191.361 35.72 192.13 34.9922 193.214 34.9922C193.909 34.9922 194.463 35.3065 194.703 35.8689L193.958 36.2824C193.776 35.9598 193.512 35.811 193.214 35.811C192.726 35.811 192.346 36.1583 192.346 36.7621C192.346 37.3658 192.726 37.7132 193.214 37.7132C193.52 37.7132 193.785 37.5726 193.958 37.2418L194.703 37.6636C194.463 38.2094 193.909 38.532 193.214 38.532C192.13 38.532 191.361 37.7959 191.361 36.7703V36.7538Z" fill="#002A4B"/>
<path id="Vector_25" d="M198.541 37.035H196.027C196.118 37.4651 196.473 37.7214 196.978 37.7214C197.333 37.7214 197.582 37.6139 197.813 37.3906L198.326 37.9613C198.02 38.3252 197.557 38.5154 196.953 38.5154C195.803 38.5154 195.051 37.7711 195.051 36.7538C195.051 35.7365 195.812 34.9922 196.829 34.9922C197.846 34.9922 198.557 35.6704 198.557 36.7703C198.557 36.8448 198.549 36.9523 198.541 37.035ZM196.01 36.4561H197.648C197.582 36.026 197.267 35.7448 196.829 35.7448C196.391 35.7448 196.076 36.0177 196.01 36.4561Z" fill="#002A4B"/>
<path id="Vector_26" d="M204.033 37.515H202.023L201.643 38.4744H200.617L202.544 34.0166H203.537L205.472 38.4744H204.422L204.041 37.515H204.033ZM203.71 36.7293L203.024 35.0256L202.337 36.7293H203.71Z" fill="#002A4B"/>
<path id="Vector_27" d="M209.285 33.7432V38.4739H208.367V38.0769C208.127 38.3746 207.771 38.5235 207.324 38.5235C206.382 38.5235 205.662 37.8371 205.662 36.7619C205.662 35.6867 206.382 35.0003 207.324 35.0003C207.73 35.0003 208.077 35.1326 208.317 35.4138V33.7514H209.285V33.7432ZM208.333 36.7536C208.333 36.1581 207.961 35.8025 207.49 35.8025C207.018 35.8025 206.638 36.1581 206.638 36.7536C206.638 37.3491 207.01 37.7047 207.49 37.7047C207.97 37.7047 208.333 37.3491 208.333 36.7536Z" fill="#002A4B"/>
<path id="Vector_28" d="M215.866 36.5061V38.4662H214.898V36.655C214.898 36.1009 214.659 35.8445 214.27 35.8445C213.84 35.8445 213.534 36.134 213.534 36.746V38.4662H212.566V36.655C212.566 36.1009 212.335 35.8445 211.938 35.8445C211.508 35.8445 211.21 36.134 211.21 36.746V38.4662H210.242V35.034H211.16V35.431C211.408 35.1415 211.78 34.9844 212.202 34.9844C212.665 34.9844 213.062 35.1663 213.294 35.5468C213.559 35.1994 213.989 34.9844 214.493 34.9844C215.287 34.9844 215.85 35.4558 215.85 36.4979L215.866 36.5061Z" fill="#002A4B"/>
<path id="Vector_29" d="M216.693 34.0082C216.693 33.6939 216.933 33.4541 217.289 33.4541C217.644 33.4541 217.884 33.6857 217.884 33.9917C217.884 34.3225 217.644 34.5623 217.289 34.5623C216.933 34.5623 216.693 34.3225 216.693 34.0082ZM216.809 35.042H217.777V38.4743H216.809V35.042Z" fill="#002A4B"/>
<path id="Vector_30" d="M222.153 36.5061V38.4662H221.185V36.655C221.185 36.1009 220.937 35.8445 220.516 35.8445C220.052 35.8445 219.722 36.134 219.722 36.7708V38.4662H218.754V35.034H219.672V35.4393C219.928 35.1498 220.325 34.9844 220.772 34.9844C221.558 34.9844 222.153 35.4558 222.153 36.4979V36.5061Z" fill="#002A4B"/>
<path id="Vector_31" d="M222.98 34.0082C222.98 33.6939 223.22 33.4541 223.576 33.4541C223.932 33.4541 224.171 33.6857 224.171 33.9917C224.171 34.3225 223.932 34.5623 223.576 34.5623C223.22 34.5623 222.98 34.3225 222.98 34.0082ZM223.105 35.042H224.072V38.4743H223.105V35.042Z" fill="#002A4B"/>
<path id="Vector_32" d="M224.717 38.1515L225.039 37.4402C225.337 37.6387 225.784 37.7711 226.197 37.7711C226.644 37.7711 226.809 37.647 226.809 37.4568C226.809 36.8944 224.8 37.4733 224.8 36.1004C224.8 35.4471 225.37 34.9922 226.338 34.9922C226.793 34.9922 227.305 35.0997 227.62 35.2899L227.297 36.0012C226.966 35.811 226.644 35.7448 226.338 35.7448C225.908 35.7448 225.718 35.8854 225.718 36.0673C225.718 36.6546 227.727 36.0839 227.727 37.4402C227.727 38.0771 227.148 38.532 226.156 38.532C225.593 38.532 225.023 38.3748 224.717 38.1598V38.1515Z" fill="#002A4B"/>
<path id="Vector_33" d="M230.547 38.3007C230.348 38.4496 230.059 38.5157 229.761 38.5157C228.975 38.5157 228.521 38.1022 228.521 37.2834V35.8775H228.008V35.1166H228.521V34.2812H229.488V35.1166H230.315V35.8775H229.488V37.2752C229.488 37.5646 229.645 37.73 229.902 37.73C230.042 37.73 230.183 37.6887 230.29 37.606L230.547 38.309V38.3007Z" fill="#002A4B"/>
<path id="Vector_34" d="M233.236 34.9922V35.9102C233.153 35.9102 233.095 35.8937 233.021 35.8937C232.491 35.8937 232.136 36.1914 232.136 36.853V38.4741H231.168V35.0418H232.086V35.4967C232.318 35.1659 232.715 34.9922 233.227 34.9922H233.236Z" fill="#002A4B"/>
<path id="Vector_35" d="M236.816 36.514V38.4741H235.914V38.044C235.732 38.3583 235.385 38.5237 234.897 38.5237C234.119 38.5237 233.656 38.0771 233.656 37.4816C233.656 36.8861 234.07 36.4561 235.087 36.4561H235.856C235.856 36.026 235.608 35.7779 235.087 35.7779C234.731 35.7779 234.368 35.9019 234.128 36.1004L233.78 35.4057C234.144 35.1411 234.682 34.9922 235.211 34.9922C236.228 34.9922 236.816 35.4801 236.816 36.514ZM235.848 37.3824V37.035H235.186C234.731 37.035 234.591 37.2087 234.591 37.4402C234.591 37.6884 234.798 37.8538 235.137 37.8538C235.459 37.8538 235.732 37.7049 235.848 37.3906V37.3824Z" fill="#002A4B"/>
<path id="Vector_36" d="M239.91 38.3007C239.712 38.4496 239.422 38.5157 239.124 38.5157C238.339 38.5157 237.884 38.1022 237.884 37.2834V35.8775H237.371V35.1166H237.884V34.2812H238.851V35.1166H239.679V35.8775H238.851V37.2752C238.851 37.5646 239.009 37.73 239.265 37.73C239.406 37.73 239.546 37.6887 239.654 37.606L239.91 38.309V38.3007Z" fill="#002A4B"/>
<path id="Vector_37" d="M240.414 34.0082C240.414 33.6939 240.654 33.4541 241.01 33.4541C241.365 33.4541 241.605 33.6857 241.605 33.9917C241.605 34.3225 241.365 34.5623 241.01 34.5623C240.654 34.5623 240.414 34.3225 240.414 34.0082ZM240.53 35.042H241.497V38.4743H240.53V35.042Z" fill="#002A4B"/>
<path id="Vector_38" d="M242.225 36.7538C242.225 35.72 242.994 34.9922 244.052 34.9922C245.111 34.9922 245.88 35.7283 245.88 36.7538C245.88 37.7793 245.111 38.5154 244.052 38.5154C242.994 38.5154 242.225 37.7793 242.225 36.7538ZM244.904 36.7538C244.904 36.1583 244.54 35.8027 244.061 35.8027C243.581 35.8027 243.209 36.1583 243.209 36.7538C243.209 37.3493 243.581 37.7049 244.061 37.7049C244.54 37.7049 244.904 37.3493 244.904 36.7538Z" fill="#002A4B"/>
<path id="Vector_39" d="M249.999 36.5061V38.4662H249.031V36.655C249.031 36.1009 248.783 35.8445 248.361 35.8445C247.898 35.8445 247.567 36.134 247.567 36.7708V38.4662H246.6V35.034H247.518V35.4393C247.774 35.1498 248.171 34.9844 248.618 34.9844C249.403 34.9844 249.999 35.4558 249.999 36.4979V36.5061Z" fill="#002A4B"/>
</g>
</g>
<defs>
<linearGradient id="paint0_linear_16682_35788" x1="27.0693" y1="23.6701" x2="19.4439" y2="39.4006" gradientUnits="userSpaceOnUse">
<stop stop-color="#E83E30"/>
<stop offset="1" stop-color="#CE2B30"/>
</linearGradient>
<clipPath id="clip0_16682_35788">
<rect width="250" height="39.7066" fill="white"/>
</clipPath>
</defs>
</svg>
